<svg width="24" height="24" xmlns="http://www.w3.org/2000/svg">
 <title>11</title>

 <desc>Created with Sketch.</desc>
 <g>
  <title>background</title>
  <rect fill="none" id="canvas_background" height="26" width="26" y="-1" x="-1"/>
 </g>
 <g>
  <title>Layer 1</title>
  <g id="svg_1" fill-rule="evenodd" fill="none">
   <path id="svg_2" fill="#000000" d="m18.668098,12.831388c-0.303049,-1.435812 -1.109497,-2.527699 -2.396805,-3.245443c-1.287952,-0.718229 -2.714942,-0.868952 -3.68525,-0.868952c-0.719654,0 -1.423089,0.083358 -2.034052,0.241187c-1.444997,0.373008 -2.755337,1.384765 -3.505497,2.706691c-0.578842,1.020159 -0.740911,2.108488 -0.456033,3.064352c0.021741,0.073341 0.008598,0.154922 -0.036013,0.223578c-0.079495,0.122613 -0.19922,0.289003 -0.337442,0.481565c-0.372483,0.518242 -0.835979,1.163292 -1.005998,1.625631c-0.068299,0.18594 -0.054833,0.3932 0.036991,0.568798c0.091822,0.175442 0.254703,0.305161 0.44354,0.354918c0.038286,0.011469 0.219985,0.080614 0.31781,0.117767c0.102045,0.038771 0.190461,0.071888 0.213822,0.079317c0.253405,0.08029 0.239453,1.129364 0.231179,1.756159c-0.002272,0.161062 -0.00438,0.323576 -0.00438,0.48399c0,0.825659 0.538607,1.318693 1.440291,1.318693c0.256001,0 0.483936,-0.037638 0.630107,-0.069298c0.121834,-0.026337 0.242537,-0.040388 0.34912,-0.040388c0.433159,0 0.60983,0.195951 0.60983,0.676226c0,0.145554 0.004214,0.277052 0.012164,0.391262c0.024498,0.34716 0.25211,0.652807 0.580141,0.778816c0.260546,0.099831 1.228093,0.425989 2.736355,0.425989c1.225983,0 2.455697,-0.216473 3.654745,-0.643274c0.168562,-0.060093 0.303701,-0.189651 0.370378,-0.355556c0.067001,-0.166557 0.059376,-0.353786 -0.021418,-0.51404c-0.212845,-0.42131 -0.711056,-1.408028 -0.364693,-2.749662c0.146496,-0.567348 0.504375,-1.045683 0.918552,-1.599621c0.834681,-1.116116 1.87361,-2.505243 1.302555,-5.208704l0,0zm-5.54218,-6.717421l-0.050171,0c-0.400359,0 -0.724829,0.323238 -0.724829,0.721908c0,0.398669 0.32447,0.721766 0.724829,0.721766l0.050171,0c0.400363,0 0.724974,-0.323096 0.724974,-0.721766c0,-0.39867 -0.324611,-0.721908 -0.724974,-0.721908l0,0zm1.730783,-5.454856c-0.915421,-0.658505 -2.374317,-0.770875 -3.338489,-0.15992c-0.39681,0.251487 -0.675798,0.614208 -0.836965,1.088169c-0.155629,0.457401 0.199113,0.929944 0.68404,0.929944c0.302013,0 0.584555,-0.179874 0.683617,-0.464051c0.039653,-0.113501 0.094087,-0.225305 0.1633,-0.335127c0.273873,-0.433201 0.974117,-0.523918 1.392387,-0.264082c0.516904,0.321258 0.597915,1.008775 0.267193,1.487972c-0.073623,0.106567 -0.170551,0.204782 -0.290215,0.29465l-0.365259,0.284743c-0.360427,0.279792 -0.583702,0.527033 -0.670542,0.741863c-0.039227,0.097651 -0.07163,0.231251 -0.097211,0.400934c-0.06069,0.402208 0.251556,0.765498 0.660023,0.765498l0.032403,0c0.316795,0 0.580575,-0.224032 0.653629,-0.530993c0.004973,-0.020946 0.010374,-0.040475 0.016061,-0.058449c0.063667,-0.19983 0.19158,-0.374752 0.385439,-0.524625l0.354599,-0.274694c0.360283,-0.279792 0.6036,-0.509484 0.730658,-0.689359c0.216595,-0.296348 0.325324,-0.661052 0.325324,-1.09397c0,-0.706058 -0.249997,-1.238893 -0.749991,-1.598502l0,0zm1.132376,6.49166l-0.030457,-0.01407c-0.243071,-0.11226 -0.532454,-0.006999 -0.646405,0.235042c-0.113955,0.242041 -0.009315,0.529181 0.233751,0.641444l0.030461,0.014067c0.243068,0.112264 0.532497,0.007126 0.64645,-0.234916c0.113955,-0.242041 0.009268,-0.529306 -0.2338,-0.641567l0,0zm2.603763,-2.826403c-0.36755,-0.656478 -1.221155,-1.133775 -1.981153,-1.033207c-0.312794,0.041418 -0.585855,0.183405 -0.819177,0.425963c-0.225223,0.234061 -0.144925,0.620423 0.149486,0.756397c0.183355,0.084685 0.406309,0.054704 0.547676,-0.090048c0.056517,-0.057793 0.121523,-0.110405 0.194937,-0.157675c0.290096,-0.186211 0.741159,-0.044935 0.92083,0.230097c0.221996,0.339984 0.074663,0.780104 -0.263096,0.978299c-0.075157,0.044055 -0.162079,0.076506 -0.260418,0.09751l-0.303146,0.070456c-0.298798,0.068802 -0.505022,0.1563 -0.619146,0.26238c-0.051727,0.048285 -0.109591,0.12031 -0.173622,0.216156c-0.15181,0.227173 -0.066082,0.535286 0.181908,0.649819l0.019674,0.009088c0.192329,0.08883 0.416515,0.026781 0.548607,-0.139099c0.009007,-0.011323 0.01787,-0.021666 0.026455,-0.030983c0.095779,-0.103467 0.223431,-0.1738 0.383968,-0.210433l0.293798,-0.067343c0.29871,-0.068842 0.512087,-0.140067 0.640638,-0.213646c0.216209,-0.119184 0.386461,-0.310117 0.510206,-0.572952c0.201817,-0.428661 0.202341,-0.822254 0.001575,-1.180779l0,0zm-8.026159,2.336438l-0.014741,0.014604c-0.117658,0.116535 -0.117104,0.305968 0.001185,0.423128c0.118289,0.117161 0.309508,0.117669 0.427169,0.001135l0.014741,-0.014605c0.117658,-0.116532 0.117188,-0.305968 -0.001103,-0.423127c-0.118289,-0.117159 -0.309592,-0.117667 -0.427251,-0.001135l0,0zm-1.103416,-2.106872c-0.464405,0.072934 -0.926486,0.464552 -1.028555,0.924738c-0.041994,0.189404 -0.016359,0.377205 0.076906,0.563401c0.089981,0.179718 0.334441,0.215335 0.476949,0.074185c0.088756,-0.087906 0.118417,-0.223005 0.06321,-0.335353c-0.022024,-0.044896 -0.039202,-0.093598 -0.051446,-0.146017c-0.048053,-0.207025 0.130818,-0.437504 0.330834,-0.482889c0.247227,-0.056046 0.475027,0.122419 0.520016,0.359508c0.009989,0.052745 0.010645,0.109823 0.00214,0.171062l-0.022855,0.189995c-0.022902,0.187134 -0.015161,0.324782 0.023065,0.413191c0.017445,0.040116 0.047562,0.088808 0.090392,0.146122c0.101504,0.135862 0.301057,0.151739 0.421096,0.032849l0.009521,-0.009434c0.0931,-0.092207 0.104146,-0.234823 0.034535,-0.346297c-0.004753,-0.007602 -0.008962,-0.014915 -0.012621,-0.021852c-0.040581,-0.077259 -0.054892,-0.165893 -0.04239,-0.266365l0.022703,-0.183939c0.022862,-0.187092 0.026214,-0.325415 0.010183,-0.41526c-0.024279,-0.150136 -0.100537,-0.288958 -0.228989,-0.416184c-0.209496,-0.207492 -0.441058,-0.291314 -0.694695,-0.251463l0,0l0,0z"/>
  </g>
 </g>
</svg>