<svg width="48" height="48" xmlns="http://www.w3.org/2000/svg">

 <g>
  <title>background</title>
  <rect fill="none" id="canvas_background" height="402" width="582" y="-1" x="-1"/>
 </g>
 <g>
  <title>Layer 1</title>
  <path fill="#3f51b5" id="svg_1" d="m30.498232,17.55547c-1.663555,-1.653907 -3.960297,-2.68047 -6.504559,-2.68047c-5.088522,0 -9.198482,4.083437 -9.198482,9.125s4.10996,9.125 9.198482,9.125c4.288404,0 7.880301,-2.908592 8.899157,-6.84375l-2.394598,0c-0.94978,2.657656 -3.494041,4.5625 -6.504559,4.5625c-3.816391,0 -6.907495,-3.062578 -6.907495,-6.84375s3.091105,-6.84375 6.907495,-6.84375c1.905317,0 3.614922,0.787031 4.864029,2.024609l-3.71278,3.678516l8.058744,0l0,-7.984375l-2.705435,2.68047z"/>
 </g>
</svg>