<?xml version="1.0" standalone="no"?>
<!DOCTYPE svg PUBLIC "-//W3C//DTD SVG 20010904//EN"
 "http://www.w3.org/TR/2001/REC-SVG-20010904/DTD/svg10.dtd">
<svg version="1.0" xmlns="http://www.w3.org/2000/svg"
 width="200.000000pt" height="200.000000pt" viewBox="0 0 200.000000 200.000000"
 preserveAspectRatio="xMidYMid meet">

<g transform="translate(0.000000,200.000000) scale(0.100000,-0.100000)"
fill="#000000" stroke="none">
<path d="M185 1496 c-40 -17 -84 -63 -101 -103 -11 -25 -14 -107 -14 -365 0
-313 1 -334 20 -374 12 -24 39 -54 62 -70 l41 -29 796 0 796 0 36 24 c20 14
47 41 60 60 24 34 24 35 27 365 2 182 0 346 -3 364 -8 42 -59 100 -110 123
-38 17 -86 19 -810 18 -616 0 -776 -2 -800 -13z m675 -212 c44 -18 80 -66 80
-108 0 -24 -3 -26 -43 -26 -39 0 -45 3 -58 33 -11 25 -21 33 -46 35 -25 3 -35
-2 -49 -23 -26 -40 -7 -68 73 -109 97 -49 116 -72 121 -149 3 -53 1 -66 -19
-91 -44 -56 -129 -71 -206 -37 -46 21 -71 53 -83 106 l-8 35 48 0 c46 0 49 -2
55 -30 12 -53 82 -69 111 -25 27 41 8 74 -62 110 -106 53 -134 85 -134 153 0
61 23 100 73 123 52 23 94 24 147 3z m-360 -12 c43 -23 70 -73 70 -130 0 -50
-24 -108 -51 -123 -21 -11 -22 -5 35 -136 l35 -83 -53 0 -54 0 -38 90 c-32 77
-40 90 -60 90 -23 0 -24 -2 -24 -90 l0 -90 -50 0 -50 0 0 245 0 245 103 0 c80
0 110 -4 137 -18z m626 -152 c21 -93 41 -170 44 -170 3 0 13 37 24 83 10 45
27 121 38 170 l21 87 54 0 c47 0 54 -2 49 -17 -3 -10 -23 -83 -46 -163 -23
-80 -53 -182 -66 -228 l-26 -83 -50 3 -51 3 -63 220 c-35 121 -65 230 -69 243
-5 21 -2 22 48 22 l54 0 39 -170z m524 152 c19 -9 45 -33 58 -52 20 -30 23
-45 20 -102 -3 -54 -8 -72 -28 -94 -34 -36 -80 -54 -140 -54 l-50 0 0 -85 0
-85 -50 0 -50 0 0 245 0 245 103 0 c77 0 110 -4 137 -18z"/>
<path d="M360 1135 l0 -75 38 0 c50 0 72 24 72 78 0 52 -20 72 -71 72 l-39 0
0 -75z"/>
<path d="M1510 1130 l0 -80 43 0 c51 0 63 7 76 43 24 63 -11 117 -76 117 l-43
0 0 -80z"/>
</g>
</svg>
